<?xml version="1.0" standalone="no"?>
<!DOCTYPE svg PUBLIC "-//W3C//DTD SVG 20010904//EN"
 "http://www.w3.org/TR/2001/REC-SVG-20010904/DTD/svg10.dtd">
<svg version="1.0" xmlns="http://www.w3.org/2000/svg"
 width="32.000000pt" height="32.000000pt" viewBox="0 0 32.000000 32.000000"
 preserveAspectRatio="xMidYMid meet">
<metadata>
Created by potrace 1.16, written by Peter Selinger 2001-2019
</metadata>
<g transform="translate(0.000000,32.000000) scale(0.100000,-0.100000)"
fill="#000000" stroke="none">
<path d="M72 240 c-49 -50 -61 -90 -36 -128 17 -27 17 -27 -3 -10 -27 25 -33
23 -33 -11 0 -44 20 -54 99 -49 51 4 83 13 130 39 73 38 94 64 89 111 -4 42
-34 57 -113 59 -33 0 -54 3 -47 6 22 9 12 23 -17 23 -20 0 -41 -12 -69 -40z
m100 -27 c15 -3 35 -14 44 -24 17 -19 17 -21 -3 -47 -11 -15 -36 -36 -57 -47
l-37 -20 -20 24 c-24 29 -24 64 -2 102 12 20 22 27 33 23 8 -4 27 -9 42 -11z"/>
</g>
</svg>
